<svg width="46" height="40" viewBox="0 0 46 40" fill="none" xmlns="http://www.w3.org/2000/svg">
<path d="M40.3 2.525C40.0438 1.78758 39.5643 1.14825 38.9281 0.695763C38.2919 0.24328 37.5307 0.000104208 36.75 0H9.25C7.6125 0 6.2125 1.05 5.7 2.525L0.5 17.5V37.5C0.5 38.875 1.625 40 3 40H5.5C6.16304 40 6.79893 39.7366 7.26777 39.2678C7.73661 38.7989 8 38.163 8 37.5V35H38V37.5C38 38.875 39.125 40 40.5 40H43C43.663 40 44.2989 39.7366 44.7678 39.2678C45.2366 38.7989 45.5 38.163 45.5 37.5V17.5L40.3 2.525ZM9.25 27.5C7.175 27.5 5.5 25.825 5.5 23.75C5.5 21.675 7.175 20 9.25 20C11.325 20 13 21.675 13 23.75C13 25.825 11.325 27.5 9.25 27.5ZM36.75 27.5C34.675 27.5 33 25.825 33 23.75C33 21.675 34.675 20 36.75 20C38.825 20 40.5 21.675 40.5 23.75C40.5 25.825 38.825 27.5 36.75 27.5ZM5.5 15L9.25 3.75H36.75L40.5 15H5.5Z" fill="#2A466F"/>
</svg>
