<svg width="40" height="40" viewBox="0 0 40 40" fill="none" xmlns="http://www.w3.org/2000/svg">
<path d="M17.8131 0.840315C19.0693 -0.280105 21.0344 -0.280105 22.2906 0.840315L38.0737 14.9177C39.0504 15.7887 39.6037 17.0006 39.6037 18.2684V35.3888C39.6037 37.9354 37.4152 40 34.7157 40H28.1984C25.4989 40 23.3105 37.9354 23.3105 35.3888V27.7036C23.3105 26.8548 22.581 26.1666 21.6812 26.1666H18.4225C17.5227 26.1666 16.7932 26.8548 16.7932 27.7036V35.3888C16.7932 37.9354 14.6048 40 11.9052 40H5.38796C2.6884 40 0.5 37.9354 0.5 35.3888V18.2684C0.5 17.0006 1.05332 15.7887 2.02987 14.9177L17.8131 0.840315ZM20.0518 3.07412L4.26858 17.1515C3.94308 17.4418 3.75864 17.8458 3.75864 18.2684V35.3888C3.75864 36.2376 4.48812 36.9259 5.38796 36.9259H11.9052C12.8051 36.9259 13.5346 36.2376 13.5346 35.3888V27.7036C13.5346 25.157 15.723 23.0925 18.4225 23.0925H21.6812C24.3807 23.0925 26.5691 25.157 26.5691 27.7036V35.3888C26.5691 36.2376 27.2987 36.9259 28.1984 36.9259H34.7157C35.6154 36.9259 36.345 36.2376 36.345 35.3888V18.2684C36.345 17.8458 36.1606 17.4418 35.8351 17.1515L20.0518 3.07412Z" fill="#2A466F"/>
</svg>
