<svg width="284" height="168" viewBox="0 0 284 168" fill="none" xmlns="http://www.w3.org/2000/svg">
<g clip-path="url(#clip0_63_100)">
<path d="M52.7891 43H45.0352V31.3594H36.0703V43H28.3164V14.4453H36.0703V25.0312H45.0352V14.4453H52.7891V43ZM68.4922 20.4805C70.6406 20.4805 72.4961 20.8581 74.0586 21.6133C75.6211 22.3555 76.8255 23.4753 77.6719 24.9727C78.5182 26.4701 78.9414 28.3451 78.9414 30.5977V33.9961H65.2891C65.3542 35.1549 65.7839 36.1055 66.5781 36.8477C67.3854 37.5898 68.5703 37.9609 70.1328 37.9609C71.513 37.9609 72.776 37.8242 73.9219 37.5508C75.0807 37.2773 76.2721 36.8542 77.4961 36.2812V41.7695C76.4284 42.3294 75.263 42.7396 74 43C72.737 43.2604 71.1419 43.3906 69.2148 43.3906C66.9883 43.3906 64.9961 42.9935 63.2383 42.1992C61.4805 41.4049 60.0938 40.1745 59.0781 38.5078C58.0755 36.8411 57.5742 34.6992 57.5742 32.082C57.5742 29.4258 58.0299 27.2448 58.9414 25.5391C59.8529 23.8203 61.1289 22.5508 62.7695 21.7305C64.4102 20.8971 66.3177 20.4805 68.4922 20.4805ZM68.7656 25.6758C67.8672 25.6758 67.112 25.9622 66.5 26.5352C65.901 27.0951 65.5495 27.9805 65.4453 29.1914H72.0078C71.9948 28.5404 71.8646 27.9479 71.6172 27.4141C71.3698 26.8802 71.0052 26.457 70.5234 26.1445C70.0547 25.832 69.4688 25.6758 68.7656 25.6758ZM94.0586 20.4805C96.8581 20.4805 99.0456 21.1771 100.621 22.5703C102.197 23.9505 102.984 25.9232 102.984 28.4883V43H97.6914L96.2266 40.0703H96.0703C95.4453 40.8516 94.8008 41.4896 94.1367 41.9844C93.4857 42.4661 92.737 42.8177 91.8906 43.0391C91.0443 43.2734 90.0091 43.3906 88.7852 43.3906C87.5091 43.3906 86.3633 43.1302 85.3477 42.6094C84.332 42.0885 83.5312 41.3008 82.9453 40.2461C82.3594 39.1914 82.0664 37.8568 82.0664 36.2422C82.0664 33.8724 82.8867 32.1146 84.5273 30.9688C86.168 29.8229 88.5443 29.1784 91.6562 29.0352L95.3477 28.918V28.6055C95.3477 27.6159 95.1003 26.9128 94.6055 26.4961C94.1237 26.0794 93.4727 25.8711 92.6523 25.8711C91.7799 25.8711 90.8034 26.0273 89.7227 26.3398C88.6549 26.6393 87.5807 27.0299 86.5 27.5117L84.293 22.4727C85.569 21.8216 87.0143 21.3268 88.6289 20.9883C90.2435 20.6497 92.0534 20.4805 94.0586 20.4805ZM95.3867 33.1172L93.6289 33.1953C92.2227 33.2474 91.2331 33.4948 90.6602 33.9375C90.1003 34.3672 89.8203 34.9857 89.8203 35.793C89.8203 36.5482 90.0221 37.1081 90.4258 37.4727C90.8294 37.8242 91.3633 38 92.0273 38C92.9518 38 93.7396 37.707 94.3906 37.1211C95.0547 36.5352 95.3867 35.7734 95.3867 34.8359V33.1172ZM115.816 43H108.18V12.6094H115.816V43ZM131.949 37.3555C132.639 37.3555 133.271 37.2839 133.844 37.1406C134.417 36.9974 135.016 36.8151 135.641 36.5938V42.1602C134.807 42.5247 133.922 42.8177 132.984 43.0391C132.06 43.2734 130.875 43.3906 129.43 43.3906C127.997 43.3906 126.734 43.1693 125.641 42.7266C124.547 42.2708 123.694 41.4896 123.082 40.3828C122.483 39.263 122.184 37.707 122.184 35.7148V26.5938H119.508V23.4883L122.906 21.0859L124.879 16.4375H129.879V20.8711H135.309V26.5938H129.879V35.207C129.879 35.9232 130.061 36.4635 130.426 36.8281C130.79 37.1797 131.298 37.3555 131.949 37.3555ZM147.145 12.6094V16.9258C147.145 18.5664 147.105 19.9466 147.027 21.0664C146.962 22.1732 146.897 23.0195 146.832 23.6055H147.184C147.665 22.8372 148.212 22.2253 148.824 21.7695C149.436 21.3138 150.113 20.9883 150.855 20.793C151.598 20.5846 152.405 20.4805 153.277 20.4805C154.736 20.4805 156.051 20.7604 157.223 21.3203C158.408 21.8802 159.352 22.7591 160.055 23.957C160.758 25.1419 161.109 26.6914 161.109 28.6055V43H153.434V30.9297C153.434 29.4583 153.219 28.3516 152.789 27.6094C152.359 26.8542 151.695 26.4766 150.797 26.4766C149.872 26.4766 149.143 26.7435 148.609 27.2773C148.076 27.7982 147.698 28.5664 147.477 29.582C147.255 30.5846 147.145 31.8151 147.145 33.2734V43H139.508V12.6094H147.145ZM163.629 20.8711H171.676L175.426 33.5664C175.478 33.7487 175.53 33.9766 175.582 34.25C175.634 34.5104 175.68 34.7904 175.719 35.0898C175.758 35.3893 175.784 35.6823 175.797 35.9688H175.953C176.018 35.4349 176.09 34.9727 176.168 34.582C176.259 34.1784 176.344 33.8529 176.422 33.6055L180.27 20.8711H188.062L179.312 44.4062C178.635 46.2031 177.848 47.707 176.949 48.918C176.064 50.1419 174.964 51.0599 173.648 51.6719C172.346 52.2969 170.725 52.6094 168.785 52.6094C168.082 52.6094 167.477 52.5703 166.969 52.4922C166.474 52.4271 166.038 52.3555 165.66 52.2773V46.2812C165.947 46.3333 166.298 46.3854 166.715 46.4375C167.132 46.4896 167.568 46.5156 168.023 46.5156C168.87 46.5156 169.553 46.3464 170.074 46.0078C170.608 45.6693 171.044 45.2201 171.383 44.6602C171.721 44.1133 172.014 43.5208 172.262 42.8828L172.34 42.6875L163.629 20.8711ZM203.883 20.3633C202.971 20.3633 202.158 20.5586 201.441 20.9492C200.725 21.3268 200.113 21.8802 199.605 22.6094C199.098 23.3385 198.707 24.2305 198.434 25.2852C198.173 26.3268 198.043 27.5117 198.043 28.8398C198.043 30.6367 198.271 32.1471 198.727 33.3711C199.182 34.5951 199.872 35.5195 200.797 36.1445C201.734 36.7695 202.906 37.082 204.312 37.082C205.589 37.082 206.812 36.9062 207.984 36.5547C209.169 36.2031 210.361 35.7799 211.559 35.2852V41.8086C210.296 42.3685 209 42.7721 207.672 43.0195C206.357 43.2669 204.957 43.3906 203.473 43.3906C200.374 43.3906 197.835 42.7786 195.855 41.5547C193.889 40.3177 192.438 38.6055 191.5 36.418C190.576 34.2305 190.113 31.6914 190.113 28.8008C190.113 26.6393 190.413 24.6602 191.012 22.8633C191.624 21.0664 192.516 19.5104 193.688 18.1953C194.859 16.8672 196.305 15.8451 198.023 15.1289C199.755 14.3997 201.734 14.0352 203.961 14.0352C205.341 14.0352 206.793 14.1979 208.316 14.5234C209.853 14.8359 211.35 15.3438 212.809 16.0469L210.445 22.1211C209.404 21.6263 208.349 21.2096 207.281 20.8711C206.214 20.5326 205.081 20.3633 203.883 20.3633ZM227.496 20.4805C230.296 20.4805 232.483 21.1771 234.059 22.5703C235.634 23.9505 236.422 25.9232 236.422 28.4883V43H231.129L229.664 40.0703H229.508C228.883 40.8516 228.238 41.4896 227.574 41.9844C226.923 42.4661 226.174 42.8177 225.328 43.0391C224.482 43.2734 223.447 43.3906 222.223 43.3906C220.947 43.3906 219.801 43.1302 218.785 42.6094C217.77 42.0885 216.969 41.3008 216.383 40.2461C215.797 39.1914 215.504 37.8568 215.504 36.2422C215.504 33.8724 216.324 32.1146 217.965 30.9688C219.605 29.8229 221.982 29.1784 225.094 29.0352L228.785 28.918V28.6055C228.785 27.6159 228.538 26.9128 228.043 26.4961C227.561 26.0794 226.91 25.8711 226.09 25.8711C225.217 25.8711 224.241 26.0273 223.16 26.3398C222.092 26.6393 221.018 27.0299 219.938 27.5117L217.73 22.4727C219.007 21.8216 220.452 21.3268 222.066 20.9883C223.681 20.6497 225.491 20.4805 227.496 20.4805ZM228.824 33.1172L227.066 33.1953C225.66 33.2474 224.671 33.4948 224.098 33.9375C223.538 34.3672 223.258 34.9857 223.258 35.793C223.258 36.5482 223.46 37.1081 223.863 37.4727C224.267 37.8242 224.801 38 225.465 38C226.389 38 227.177 37.707 227.828 37.1211C228.492 36.5352 228.824 35.7734 228.824 34.8359V33.1172ZM254.977 20.4805C255.393 20.4805 255.829 20.513 256.285 20.5781C256.741 20.6302 257.079 20.6758 257.301 20.7148L256.617 27.9219C256.37 27.8568 256.051 27.8047 255.66 27.7656C255.27 27.7135 254.723 27.6875 254.02 27.6875C253.538 27.6875 253.023 27.7331 252.477 27.8242C251.93 27.9154 251.409 28.1107 250.914 28.4102C250.432 28.6966 250.035 29.1393 249.723 29.7383C249.41 30.3242 249.254 31.1185 249.254 32.1211V43H241.617V20.8711H247.301L248.492 24.4062H248.863C249.267 23.6771 249.781 23.0195 250.406 22.4336C251.044 21.8346 251.754 21.3594 252.535 21.0078C253.329 20.6562 254.143 20.4805 254.977 20.4805Z" fill="white"/>
<g filter="url(#filter0_f_63_100)">
<path d="M239.174 130.168H247.026C250.877 130.168 254 126.611 254 122.225V102.93C252.103 88.2307 225.259 79.408 200.849 79.5836C162.651 47.1014 116.56 47.4984 63.7954 75.6921L46.8451 78.9084C43.4825 79.5458 41.0164 82.8593 41.0164 86.7427V114.677C41.0164 116.581 41.6163 118.42 42.7071 119.862L48.422 127.413C49.7476 129.163 51.6755 130.17 53.7054 130.17H62.2469H239.174V130.168Z" fill="white"/>
<path d="M98.3046 68.9413L99.8571 72.3131C100.735 74.2192 102.503 75.42 104.434 75.42H189.944C169.01 54.3399 133.048 47.4024 101.043 61.0179C98.1934 62.2345 96.9202 65.9287 98.3046 68.9413Z" fill="white"/>
<path d="M119.099 90.5509H114.314C113.032 90.5509 111.993 89.3999 111.993 87.9788C111.993 86.5578 113.032 85.4067 114.314 85.4067H119.099C120.382 85.4067 121.421 86.5578 121.421 87.9788C121.421 89.3999 120.382 90.5509 119.099 90.5509Z" fill="white"/>
<path d="M242.718 96.7046C238.19 96.7046 233.912 96.7046 230.812 96.7046C226.739 92.2317 224.223 86.6129 222.451 80.4436C233.545 83.9727 241.558 88.8468 242.718 96.7046Z" fill="white"/>
<path d="M205.227 137.769C215.675 137.769 224.145 128.385 224.145 116.809C224.145 105.234 215.675 95.8499 205.227 95.8499C194.779 95.8499 186.309 105.234 186.309 116.809C186.309 128.385 194.779 137.769 205.227 137.769Z" fill="white"/>
<path d="M205.229 123.773C208.712 123.773 211.536 120.645 211.536 116.786C211.536 112.927 208.712 109.798 205.229 109.798C201.746 109.798 198.922 112.927 198.922 116.786C198.922 120.645 201.746 123.773 205.229 123.773Z" fill="white"/>
<path d="M69.5772 137.769C80.0254 137.769 88.4953 128.385 88.4953 116.809C88.4953 105.234 80.0254 95.8499 69.5772 95.8499C59.1291 95.8499 50.6592 105.234 50.6592 116.809C50.6592 128.385 59.1291 137.769 69.5772 137.769Z" fill="white"/>
<path d="M69.5796 123.773C73.0628 123.773 75.8864 120.645 75.8864 116.786C75.8864 112.927 73.0628 109.798 69.5796 109.798C66.0965 109.798 63.2728 112.927 63.2728 116.786C63.2728 120.645 66.0965 123.773 69.5796 123.773Z" fill="white"/>
<path d="M30.4349 84.7383H37.3783C39.546 84.7383 41.3043 86.6864 41.3043 89.088C41.3043 91.4897 39.546 93.4378 37.3783 93.4378H30.4349C29.855 90.5379 29.855 87.6381 30.4349 84.7383Z" fill="white"/>
</g>
<path d="M220.786 122.387H227.462C230.737 122.387 233.392 119.648 233.392 116.27V101.408C231.779 90.0859 208.955 83.2903 188.199 83.4255C155.721 58.4065 116.53 58.7123 71.6658 80.4282L57.2534 82.9055C54.3943 83.3964 52.2974 85.9487 52.2974 88.9398V110.456C52.2974 111.922 52.8075 113.339 53.735 114.45L58.5942 120.266C59.7213 121.613 61.3606 122.389 63.0865 122.389H70.3492H220.786V122.387Z" fill="#5786CC"/>
<path d="M102.16 81.177L103.488 83.902C104.239 85.4425 105.751 86.413 107.402 86.413H180.528C162.626 69.3763 131.872 63.7694 104.502 74.7734C102.065 75.7566 100.976 78.7422 102.16 81.177Z" fill="#E1E7F1"/>
<path d="M228.259 101.91C224.402 101.91 220.757 101.91 218.115 101.91C214.645 98.3615 212.502 93.9039 210.992 89.0095C220.444 91.8093 227.271 95.6761 228.259 101.91Z" fill="#E1E7F1"/>
<path d="M191.837 130.365C200.739 130.365 207.956 122.921 207.956 113.737C207.956 104.554 200.739 97.1094 191.837 97.1094C182.936 97.1094 175.719 104.554 175.719 113.737C175.719 122.921 182.936 130.365 191.837 130.365Z" fill="#2A466F"/>
<path d="M191.839 119.262C194.807 119.262 197.213 116.78 197.213 113.719C197.213 110.657 194.807 108.175 191.839 108.175C188.872 108.175 186.466 110.657 186.466 113.719C186.466 116.78 188.872 119.262 191.839 119.262Z" fill="#3B5883"/>
<path d="M76.2639 130.365C85.1658 130.365 92.3821 122.921 92.3821 113.737C92.3821 104.554 85.1658 97.1094 76.2639 97.1094C67.3621 97.1094 60.1458 104.554 60.1458 113.737C60.1458 122.921 67.3621 130.365 76.2639 130.365Z" fill="#2A466F"/>
<path d="M76.2659 119.262C79.2335 119.262 81.6393 116.78 81.6393 113.719C81.6393 110.657 79.2335 108.175 76.2659 108.175C73.2982 108.175 70.8925 110.657 70.8925 113.719C70.8925 116.78 73.2982 119.262 76.2659 119.262Z" fill="#3B5883"/>
<path d="M42.9144 88.2942H48.8302C50.6771 88.2942 52.1752 89.8397 52.1752 91.745C52.1752 93.6504 50.6771 95.1958 48.8302 95.1958H42.9144C42.4204 92.8953 42.4204 90.5947 42.9144 88.2942Z" fill="#E1E7F1"/>
<path d="M127.664 99.8755C127.664 95.3843 131.079 91.2197 135.756 91.2197C139.001 91.2197 141.409 93.0882 142.896 95.7389C144.382 93.0884 146.791 91.2197 150.036 91.2197C154.713 91.2197 158.128 95.385 158.128 99.8755C158.128 109.488 142.896 116.321 142.896 116.321C142.896 116.321 132.636 111.997 128.957 104.904H138.044L139.488 102.656L141.175 107.825L145.126 103.378H150.064V101.809H144.25L141.929 104.422L140.032 98.61L136.996 103.335H128.273C128.463 103.872 128.693 104.395 128.957 104.904L124.976 104.903V103.335L128.273 103.335C127.885 102.237 127.664 101.082 127.664 99.8755Z" fill="white"/>
</g>
<defs>
<filter id="filter0_f_63_100" x="0" y="24" width="284" height="143.769" filterUnits="userSpaceOnUse" color-interpolation-filters="sRGB">
<feFlood flood-opacity="0" result="BackgroundImageFix"/>
<feBlend mode="normal" in="SourceGraphic" in2="BackgroundImageFix" result="shape"/>
<feGaussianBlur stdDeviation="15" result="effect1_foregroundBlur_63_100"/>
</filter>
<clipPath id="clip0_63_100">
<rect width="284" height="168" fill="white"/>
</clipPath>
</defs>
</svg>
