<svg width="42" height="40" viewBox="0 0 42 40" fill="none" xmlns="http://www.w3.org/2000/svg">
<path d="M20.9999 0C9.59511 0 0.354736 8.95161 0.354736 20C0.354736 31.0484 9.59511 40 20.9999 40C32.4047 40 41.6451 31.0484 41.6451 20C41.6451 8.95161 32.4047 0 20.9999 0ZM20.9999 7.74194C25.0457 7.74194 28.3256 10.9194 28.3256 14.8387C28.3256 18.7581 25.0457 21.9355 20.9999 21.9355C16.9541 21.9355 13.6742 18.7581 13.6742 14.8387C13.6742 10.9194 16.9541 7.74194 20.9999 7.74194ZM20.9999 35.4839C16.1133 35.4839 11.7345 33.3387 8.80427 29.9839C10.3693 27.129 13.4328 25.1613 17.0041 25.1613C17.2038 25.1613 17.4036 25.1935 17.5951 25.25C18.6773 25.5887 19.8095 25.8064 20.9999 25.8064C22.1903 25.8064 23.3308 25.5887 24.4047 25.25C24.5961 25.1935 24.7959 25.1613 24.9957 25.1613C28.567 25.1613 31.6305 27.129 33.1955 29.9839C30.2652 33.3387 25.8865 35.4839 20.9999 35.4839Z" fill="#2A466F"/>
</svg>
